<svg width="512" height="512" viewBox="0 0 512 512" fill="none" xmlns="http://www.w3.org/2000/svg">
<rect width="512" height="512" fill="#0F172A"/>
<path d="M443.882 5.28C440.842 1.92 436.554 0 432.01 0H80.01C75.498 0 71.178 1.92 68.138 5.28C65.13 8.608 63.626 13.088 64.074 17.6L112.074 497.6C112.906 505.792 119.786 512 128.01 512H384.01C392.234 512 399.114 505.792 399.914 497.6L447.914 17.6C448.394 13.088 446.922 8.608 443.882 5.28Z" fill="#ECEFF1"/>
<path d="M401.29 163.2L369.61 480H142.41L106.89 125.76C146.89 112.96 207.69 104.32 256.01 144C302.73 182.4 361.61 175.36 401.29 163.2Z" fill="#2196F3"/>
</svg>
